{"title":"WWE Raw 16.05.2011","uid":6400098,"size":430969488,"categoryP":"video","categoryS":"tv_shows","magnet":"?xt=urn:btih:f908b860cffcfaf8dae3bbe02c3d50a3330b1072&amp;dn=WWE+Raw+16.05.2011&amp;tr=udp%3A%2F%2Ftracker.openbittorrent.com%3A80&amp;tr=udp%3A%2F%2Fopen.demonii.com%3A1337&amp;tr=udp%3A%2F%2Ftracker.coppersurfer.tk%3A6969&amp;tr=udp%3A%2F%2Fexodus.desync.com%3A6969","seeders":1,"leechers":0,"uploader":"spyke1998","files":1,"time":1305593861,"description":"D:\\Iztegleni\\wwe.raw.16.05.2011.wmv2-spk1998.avi\n   General\n      Complete name : D:\\Iztegleni\\wwe.raw.16.05.2011.wmv2-spk1998.avi\n      Format : AVI\n      Format/Info : Audio Video Interleave\n      File size : 411 MiB\n      Duration : 1h 27mn\n      Overall bit rate : 656 Kbps\n   Video\n      Format : WMV2\n      Codec ID : WMV2\n      Codec ID/Info : Windows Media Video 8\n      Duration : 1h 27mn\n      Bit rate : 511 Kbps\n      Width : 480 pixels\n      Height : 272 pixels\n      Display aspect ratio : 16:9\n      Frame rate : 25.000 fps\n      Resolution : 24 bits\n      Bits/(Pixel*Frame) : 0.157\n      Stream size : 320 MiB (78%)\n   Audio #1\n      ID : 1\n      Format : MPEG Audio\n      Format version : Version 1\n      Format profile : Layer 3\n      Codec ID : 55\n      Codec ID/Hint : MP3\n      Duration : 1h 27mn\n      Bit rate mode : Constant\n      Bit rate : 128 Kbps\n      Channel(s) : 2 channels\n      Sampling rate : 48.0 KHz\n      Resolution : 16 bits\n      Video delay : 8ms\n      Stream size : 80.2 MiB (20%)\n      Alignment : Split accross interleaves\n      Interleave, duration : 24 ms (0.60 video frame)","torrent":{"xt":"urn:btih:f908b860cffcfaf8dae3bbe02c3d50a3330b1072","amp;dn":"WWE+Raw+16.05.2011","amp;tr":["udp%3A%2F%2Ftracker.openbittorrent.com%3A80","udp%3A%2F%2Fopen.demonii.com%3A1337","udp%3A%2F%2Ftracker.coppersurfer.tk%3A6969","udp%3A%2F%2Fexodus.desync.com%3A6969"],"infoHash":"f908b860cffcfaf8dae3bbe02c3d50a3330b1072","infoHashBuffer":{"type":"Buffer","data":[249,8,184,96,207,252,250,248,218,227,187,224,44,61,80,163,51,11,16,114]},"announce":[],"urlList":[]}}